<svg id="Gradient" height="512" viewBox="0 0 512 512" width="512" xmlns="http://www.w3.org/2000/svg" xmlns:xlink="http://www.w3.org/1999/xlink"><linearGradient id="linear-gradient" gradientUnits="userSpaceOnUse" x1="256" x2="256" y1="496" y2="16"><stop offset="0" stop-color="#27c1e6"/><stop offset=".5" stop-color="#c275e9"/><stop offset="1" stop-color="#f2515d"/></linearGradient><path d="m472 16h-432a24.028 24.028 0 0 0 -24 24v432a24.028 24.028 0 0 0 24 24h432a24.028 24.028 0 0 0 24-24v-432a24.028 24.028 0 0 0 -24-24zm-432 16h432a8.009 8.009 0 0 1 8 8v40h-448v-40a8.009 8.009 0 0 1 8-8zm432 448h-432a8.009 8.009 0 0 1 -8-8v-376h448v376a8.009 8.009 0 0 1 -8 8zm-424-424a8 8 0 1 1 8 8 8 8 0 0 1 -8-8zm32 0a8 8 0 1 1 8 8 8 8 0 0 1 -8-8zm32 0a8 8 0 1 1 8 8 8 8 0 0 1 -8-8zm104 56h-144a24.028 24.028 0 0 0 -24 24v128a24.028 24.028 0 0 0 24 24h144a24.028 24.028 0 0 0 24-24v-128a24.028 24.028 0 0 0 -24-24zm8 152a8.009 8.009 0 0 1 -8 8h-144a8.009 8.009 0 0 1 -8-8v-128a8.009 8.009 0 0 1 8-8h144a8.009 8.009 0 0 1 8 8zm8 104h-176a8 8 0 0 0 -8 8v80a8 8 0 0 0 8 8h176a8 8 0 0 0 8-8v-80a8 8 0 0 0 -8-8zm-8 80h-160v-64h160zm-176-136a8 8 0 0 1 8-8h56a8 8 0 0 1 0 16h-56a8 8 0 0 1 -8-8zm192 0a8 8 0 0 1 -8 8h-88a8 8 0 0 1 0-16h88a8 8 0 0 1 8 8zm0 32a8 8 0 0 1 -8 8h-176a8 8 0 0 1 0-16h176a8 8 0 0 1 8 8zm216-136h-176a8 8 0 0 0 -8 8v176a8 8 0 0 0 8 8h176a8 8 0 0 0 8-8v-176a8 8 0 0 0 -8-8zm-8 176h-160v-160h160zm-332.206-177.194a8 8 0 0 0 7.784.349l48-24a8 8 0 0 0 0-14.31l-48-24a8 8 0 0 0 -11.578 7.155v48a8 8 0 0 0 3.794 6.806zm12.206-41.862 22.111 11.056-22.111 11.056zm80 75.056a8 8 0 0 1 -8 8h-88a8 8 0 0 1 -16 0h-8a8 8 0 0 1 0-16h8a8 8 0 0 1 16 0h88a8 8 0 0 1 8 8zm256 184a8 8 0 0 1 -8 8h-176a8 8 0 0 1 0-16h176a8 8 0 0 1 8 8zm-192-304a8 8 0 0 1 8-8h112a8 8 0 0 1 0 16h-112a8 8 0 0 1 -8-8zm192 0a8 8 0 0 1 -8 8h-32a8 8 0 0 1 0-16h32a8 8 0 0 1 8 8zm0 64a8 8 0 0 1 -8 8h-72a8 8 0 0 1 0-16h72a8 8 0 0 1 8 8zm0-32a8 8 0 0 1 -8 8h-88a8 8 0 0 1 0-16h88a8 8 0 0 1 8 8zm-192 0a8 8 0 0 1 8-8h56a8 8 0 0 1 0 16h-56a8 8 0 0 1 -8-8zm0 32a8 8 0 0 1 8-8h72a8 8 0 0 1 0 16h-72a8 8 0 0 1 -8-8zm72 272a8 8 0 0 1 -8 8h-56a8 8 0 0 1 0-16h56a8 8 0 0 1 8 8zm120 0a8 8 0 0 1 -8 8h-88a8 8 0 0 1 0-16h88a8 8 0 0 1 8 8z" fill="url(#linear-gradient)"/></svg>